<svg xmlns="http://www.w3.org/2000/svg" width="61" height="36" viewBox="0 0 61 36">
  <metadata><?xpacket begin="﻿" id="W5M0MpCehiHzreSzNTczkc9d"?>
<x:xmpmeta xmlns:x="adobe:ns:meta/" x:xmptk="Adobe XMP Core 5.6-c142 79.160924, 2017/07/13-01:06:39        ">
   <rdf:RDF xmlns:rdf="http://www.w3.org/1999/02/22-rdf-syntax-ns#">
      <rdf:Description rdf:about=""/>
   </rdf:RDF>
</x:xmpmeta>
                                                                                                    
                                                                                                    
                                                                                                    
                                                                                                    
                                                                                                    
                                                                                                    
                                                                                                    
                                                                                                    
                                                                                                    
                                                                                                    
                                                                                                    
                                                                                                    
                                                                                                    
                                                                                                    
                                                                                                    
                                                                                                    
                                                                                                    
                                                                                                    
                                                                                                    
                                                                                                    
                           
<?xpacket end="w"?></metadata>
<defs>
    <style>
      .cls-1 {
        fill: #fefefe;
        fill-rule: evenodd;
      }
    </style>
  </defs>
  <path id="G_" data-name="G+" class="cls-1" d="M1582,4923.61h-7.61v7.63h-5.05v-7.6h-7.62v-5.1h7.53v-7.69h5.05v7.63h7.7v5.13Zm-31.65-16.12c-1.48,1.69-2.9,3.31-4.39,5.02a10.732,10.732,0,0,0-14.66.21,11.547,11.547,0,0,0-2.32,13.54,11.068,11.068,0,0,0,11.9,5.95c4.25-.79,7.48-3.85,7.85-7.53h-9.86v-6.11h16.68a17.883,17.883,0,0,1-.44,8.41c-2.34,8.48-9.74,12.72-17.99,11.93a17.679,17.679,0,0,1-16.08-18.87c0.43-7.13,4-12.4,10.45-15.33,6.28-2.84,12.38-2.12,17.99,2.03C1549.88,4907.04,1550.24,4907.4,1550.35,4907.49Z" transform="translate(-1521 -4903)"/>
</svg>
