<svg xmlns="http://www.w3.org/2000/svg" width="36" height="36" viewBox="0 0 36 36">
  <metadata><?xpacket begin="﻿" id="W5M0MpCehiHzreSzNTczkc9d"?>
<x:xmpmeta xmlns:x="adobe:ns:meta/" x:xmptk="Adobe XMP Core 5.6-c142 79.160924, 2017/07/13-01:06:39        ">
   <rdf:RDF xmlns:rdf="http://www.w3.org/1999/02/22-rdf-syntax-ns#">
      <rdf:Description rdf:about=""/>
   </rdf:RDF>
</x:xmpmeta>
                                                                                                    
                                                                                                    
                                                                                                    
                                                                                                    
                                                                                                    
                                                                                                    
                                                                                                    
                                                                                                    
                                                                                                    
                                                                                                    
                                                                                                    
                                                                                                    
                                                                                                    
                                                                                                    
                                                                                                    
                                                                                                    
                                                                                                    
                                                                                                    
                                                                                                    
                                                                                                    
                           
<?xpacket end="w"?></metadata>
<defs>
    <style>
      .cls-1 {
        fill: #fff;
        fill-rule: evenodd;
      }
    </style>
  </defs>
  <path id="instagram" class="cls-1" d="M1703.03,4938h-12.06a11.984,11.984,0,0,1-11.97-11.97v-12.06a11.984,11.984,0,0,1,11.97-11.97h12.06a11.984,11.984,0,0,1,11.97,11.97v12.06A11.984,11.984,0,0,1,1703.03,4938Zm-12.06-33.85a9.824,9.824,0,0,0-9.82,9.82v12.06a9.824,9.824,0,0,0,9.82,9.82h12.06a9.824,9.824,0,0,0,9.82-9.82v-12.06a9.824,9.824,0,0,0-9.82-9.82h-12.06Zm6.89,24.02h-2.35a6.692,6.692,0,0,1-6.68-6.68v-2.35a6.694,6.694,0,0,1,6.68-6.69h2.35a6.7,6.7,0,0,1,6.69,6.69v2.35A6.694,6.694,0,0,1,1697.86,4928.17Zm-2.35-13.57a4.543,4.543,0,0,0-4.54,4.54v2.35a4.549,4.549,0,0,0,4.54,4.54h2.35a4.549,4.549,0,0,0,4.54-4.54v-2.35a4.543,4.543,0,0,0-4.54-4.54h-2.35Zm10.7-1.97h-0.65a2.189,2.189,0,0,1-2.19-2.19v-0.66a2.189,2.189,0,0,1,2.19-2.19h0.65a2.192,2.192,0,0,1,2.2,2.19v0.66A2.192,2.192,0,0,1,1706.21,4912.63Z" transform="translate(-1679 -4902)"/>
</svg>
