<svg xmlns="http://www.w3.org/2000/svg" width="30" height="30.09" viewBox="0 0 30 30.09">
  <metadata><?xpacket begin="﻿" id="W5M0MpCehiHzreSzNTczkc9d"?>
<x:xmpmeta xmlns:x="adobe:ns:meta/" x:xmptk="Adobe XMP Core 5.6-c142 79.160924, 2017/07/13-01:06:39        ">
   <rdf:RDF xmlns:rdf="http://www.w3.org/1999/02/22-rdf-syntax-ns#">
      <rdf:Description rdf:about=""/>
   </rdf:RDF>
</x:xmpmeta>
                                                                                                    
                                                                                                    
                                                                                                    
                                                                                                    
                                                                                                    
                                                                                                    
                                                                                                    
                                                                                                    
                                                                                                    
                                                                                                    
                                                                                                    
                                                                                                    
                                                                                                    
                                                                                                    
                                                                                                    
                                                                                                    
                                                                                                    
                                                                                                    
                                                                                                    
                                                                                                    
                           
<?xpacket end="w"?></metadata>
<defs>
    <style>
      .cls-1 {
        fill: #23b792;
        fill-rule: evenodd;
      }
    </style>
  </defs>
  <path id="phone3" class="cls-1" d="M144.072,4592.55a9.13,9.13,0,0,0,3.308-3.1,8.753,8.753,0,0,0,1.1-4.01,12.031,12.031,0,0,0-2.806-3.01c-0.7-.35-2.706-1.6-3.608-1.5a2.464,2.464,0,0,0-1.5.7c-0.351.25-3.307,2.3-3.708,2.2a31.365,31.365,0,0,1-5.512-3.9c-1.2-1.26-3.407-4.01-3.607-5.12s-0.752-.35.2-1.7,2.706-3.41,2.706-3.41a8.562,8.562,0,0,0-.6-2.5,9.3,9.3,0,0,0-2-2.81,10.29,10.29,0,0,0-2.806-1.9c-0.952-.25-3.207.7-3.207,0.7a10.091,10.091,0,0,0-2.605,1.8,3.4,3.4,0,0,0-.9,1.71,2.961,2.961,0,0,0,.4,1.7c0.15,0.5,1.8,4.71,2.305,5.71s2.405,4.06,2.906,4.81,2.455,3.31,3.006,3.91a51.58,51.58,0,0,0,3.909,3.61c0.551,0.35,2.255,1.65,3.307,2.2s3.407,1.91,4.309,2.21S144.072,4592.55,144.072,4592.55Z" transform="translate(-118.5 -4562.47)"/>
</svg>
