<svg xmlns="http://www.w3.org/2000/svg" width="43" height="36" viewBox="0 0 43 36">
  <metadata><?xpacket begin="﻿" id="W5M0MpCehiHzreSzNTczkc9d"?>
<x:xmpmeta xmlns:x="adobe:ns:meta/" x:xmptk="Adobe XMP Core 5.6-c142 79.160924, 2017/07/13-01:06:39        ">
   <rdf:RDF xmlns:rdf="http://www.w3.org/1999/02/22-rdf-syntax-ns#">
      <rdf:Description rdf:about=""/>
   </rdf:RDF>
</x:xmpmeta>
                                                                                                    
                                                                                                    
                                                                                                    
                                                                                                    
                                                                                                    
                                                                                                    
                                                                                                    
                                                                                                    
                                                                                                    
                                                                                                    
                                                                                                    
                                                                                                    
                                                                                                    
                                                                                                    
                                                                                                    
                                                                                                    
                                                                                                    
                                                                                                    
                                                                                                    
                                                                                                    
                           
<?xpacket end="w"?></metadata>
<defs>
    <style>
      .cls-1 {
        fill: #fff;
        fill-rule: evenodd;
      }
    </style>
  </defs>
  <path id="twitter" class="cls-1" d="M1755.01,4933.96a17.5,17.5,0,0,0,12.75-3.75,9.282,9.282,0,0,1-4.99-1.87,8.954,8.954,0,0,1-3.13-4.5,9.179,9.179,0,0,0,3.83-.12c-4.39-1.4-6.7-4.35-7.02-9.07a9,9,0,0,0,3.91,1.12c-3.87-3.33-4.77-7.3-2.64-12.13a25.329,25.329,0,0,0,18.32,9.54c-0.05-.55-0.1-1.02-0.14-1.48a9.019,9.019,0,0,1,5.41-8.96,8.475,8.475,0,0,1,9.46,1.71,1.036,1.036,0,0,0,1.1.29,18.154,18.154,0,0,0,4.4-1.73c0.15-.08.31-0.16,0.59-0.31a9.5,9.5,0,0,1-3.68,4.93,17.431,17.431,0,0,0,4.72-1.26c0.03,0.05.07,0.09,0.1,0.14-0.78.91-1.54,1.85-2.36,2.72-0.54.57-1.18,1.04-1.76,1.57a0.707,0.707,0,0,0-.21.49,27.033,27.033,0,0,1-1.58,9.73,27.022,27.022,0,0,1-7.47,11.11,23.738,23.738,0,0,1-8.01,4.56,25.379,25.379,0,0,1-8.85,1.3,24.117,24.117,0,0,1-10.88-2.85c-0.63-.35-1.26-0.7-1.89-1.04C1755,4934.05,1755,4934,1755.01,4933.96Z" transform="translate(-1755 -4902)"/>
</svg>
